<svg width="48" height="48" viewBox="0 0 48 48" xmlns="http://www.w3.org/2000/svg">
  <defs>
    <linearGradient id="g-gradient" x1="0%" y1="0%" x2="100%" y2="100%">
      <stop offset="0%" stop-color="#4285F4" />
      <stop offset="50%" stop-color="#34A853" />
      <stop offset="100%" stop-color="#FBBC05" />
    </linearGradient>
  </defs>
  <rect width="48" height="48" rx="14" fill="url(#g-gradient)" />
  <path d="M33.92 24.49c0-.74-.06-1.47-.19-2.17H24v4.11h5.56c-.24 1.31-.96 2.42-2.06 3.16v2.61h3.33c1.95-1.8 3.09-4.45 3.09-7.71z" fill="#4285F4" />
  <path d="M24 34.89c2.79 0 5.13-.93 6.84-2.53l-3.33-2.61c-.93.63-2.12 1-3.51 1-2.7 0-4.99-1.82-5.8-4.27h-3.42v2.69A10.87 10.87 0 0 0 24 34.89z" fill="#34A853" />
  <path d="M18.2 26.48c-.21-.63-.32-1.3-.32-1.99s.12-1.36.32-1.99v-2.69h-3.42A10.85 10.85 0 0 0 13 24.49c0 1.76.42 3.41 1.78 4.97l3.42-2.98z" fill="#FBBC05" />
  <path d="M24 17.94c1.52 0 2.88.53 3.95 1.57l2.96-2.96C29.13 15.02 26.79 14 24 14c-4.14 0-7.71 2.37-9.42 5.81l3.42 2.69c.81-2.45 3.1-4.37 5.99-4.37z" fill="#EA4335" />
</svg>
